<svg xmlns="http://www.w3.org/2000/svg" viewBox="0 0 64 64" width="64" height="64">
  <title>FloraSmart</title>
  <!-- 8 rounded white petals rotated around center -->
  <ellipse cx="32" cy="14" rx="7" ry="12" fill="#fff" transform="rotate(0 32 32)"/>
  <ellipse cx="32" cy="14" rx="7" ry="12" fill="#fff" transform="rotate(45 32 32)"/>
  <ellipse cx="32" cy="14" rx="7" ry="12" fill="#fff" transform="rotate(90 32 32)"/>
  <ellipse cx="32" cy="14" rx="7" ry="12" fill="#fff" transform="rotate(135 32 32)"/>
  <ellipse cx="32" cy="14" rx="7" ry="12" fill="#fff" transform="rotate(180 32 32)"/>
  <ellipse cx="32" cy="14" rx="7" ry="12" fill="#fff" transform="rotate(225 32 32)"/>
  <ellipse cx="32" cy="14" rx="7" ry="12" fill="#fff" transform="rotate(270 32 32)"/>
  <ellipse cx="32" cy="14" rx="7" ry="12" fill="#fff" transform="rotate(315 32 32)"/>
  <!-- Soft yellow center -->
  <circle cx="32" cy="32" r="9" fill="#F59E0B"/>
</svg>
